# xmcd
#
# Track frame offsets: 
#        182
#        20507
#        36665
#        53545
#        74477
#        93175
#        115490
#        131822
#        148657
#        169142
#
# Disc length: 2492 seconds
#
# Revision: 1
# Processed by: cddbd v1.5.2PL0 Copyright (c) Steve Scherf et al.
# Submitted via: ExactAudioCopy v0.99pb5
#
DISCID=9309ba0a
DTITLE=Alto Voltaje - ...Es Lo Que Te Traje
DYEAR=1996
DGENRE=Merengue
TTITLE0=Asi Como Soy
TTITLE1=Eres Ajena
TTITLE2=15 Años
TTITLE3=Es Mi Manera
TTITLE4=Esa Muchachita
TTITLE5=Mañana, Mañana
TTITLE6=No Me Canso
TTITLE7=Mujer Pequeña
TTITLE8=Desnudate
TTITLE9=Pienso En Ti
EXTD=YEAR: 1996
EXTT0=
EXTT1=
EXTT2=
EXTT3=
EXTT4=
EXTT5=
EXTT6=
EXTT7=
EXTT8=
EXTT9=
PLAYORDER=
